<svg width="50" height="50" viewBox="0 0 50 50" fill="none" xmlns="http://www.w3.org/2000/svg">
<g clip-path="url(#clip0)">
<path d="M46.1323 6.294L25.3 0.0442851C25.105 -0.0141107 24.8971 -0.0141107 24.7021 0.0442851L3.86969 6.294C3.4285 6.42574 3.12607 6.83148 3.12598 7.29191V30.2076C3.12598 39.4176 17.1711 47.611 24.6917 49.9525C24.8951 50.0165 25.1133 50.0165 25.3167 49.9525C32.8288 47.6109 46.874 39.4175 46.874 30.2076V7.29181C46.8741 6.83197 46.5727 6.42642 46.1323 6.294Z" fill="url(#paint0_linear)"/>
<rect x="15" y="15" width="19" height="19" fill="white"/>
<path d="M25.1875 1C16.813 1 4.5 17.1255 4.5 25.5C4.5 33.8745 16.813 48 25.1875 48C33.562 48 46 32.8745 46 24.5C46 16.1255 33.562 1 25.1875 1ZM32.5045 22.1702L24.6295 31.1702C24.22 31.6383 23.635 31.9172 23.0118 31.9375C22.987 31.9375 22.9622 31.9375 22.9375 31.9375C22.3412 31.9375 21.7698 31.7013 21.3468 31.2783L16.8468 26.7783C15.967 25.8985 15.967 24.4765 16.8468 23.5967C17.7265 22.717 19.1485 22.717 20.0282 23.5967L22.8273 26.3958L29.1182 19.2048C29.9373 18.2733 31.357 18.1742 32.293 18.9932C33.229 19.8123 33.3235 21.2342 32.5045 22.1702Z" fill="url(#paint1_linear)"/>
</g>
<defs>
<linearGradient id="paint0_linear" x1="3.12598" y1="0.000488281" x2="35.7735" y2="49.0286" gradientUnits="userSpaceOnUse">
<stop stop-color="#ECDD00"/>
<stop offset="1" stop-color="#FFB800"/>
</linearGradient>
<linearGradient id="paint1_linear" x1="4.5" y1="1" x2="35.0799" y2="47.3438" gradientUnits="userSpaceOnUse">
<stop stop-color="#ECDD00"/>
<stop offset="1" stop-color="#FFB800"/>
</linearGradient>
<clipPath id="clip0">
<rect width="50" height="50" fill="white"/>
</clipPath>
</defs>
</svg>
