<svg width="54" height="54" viewBox="0 0 54 54" fill="none" xmlns="http://www.w3.org/2000/svg">
<path d="M53.9986 36.5435C53.9986 29.8426 50.1544 23.8622 44.3969 20.9531C44.218 33.8014 33.8014 44.218 20.9531 44.3969C23.8622 50.1544 29.8426 53.9986 36.5435 53.9986C39.6854 53.9986 42.7407 53.1619 45.4252 51.572L53.9224 53.9224L51.572 45.4252C53.1619 42.7407 53.9986 39.6854 53.9986 36.5435Z" fill="url(#paint0_linear)"/>
<path d="M41.2383 20.6191C41.2383 9.24953 31.9888 0 20.6191 0C9.24953 0 0 9.24953 0 20.6191C0 24.3246 0.986298 27.9323 2.85919 31.0997L0.0758057 41.1621L10.1386 38.3791C13.306 40.252 16.9137 41.2383 20.6191 41.2383C31.9888 41.2383 41.2383 31.9888 41.2383 20.6191ZM17.4551 15.8203H14.291C14.291 12.3308 17.1296 9.49219 20.6191 9.49219C24.1087 9.49219 26.9473 12.3308 26.9473 15.8203C26.9473 17.5914 26.1974 19.2938 24.8894 20.4902L22.2012 22.9506V25.418H19.0371V21.5572L22.7532 18.1559C23.4174 17.5482 23.7832 16.7189 23.7832 15.8203C23.7832 14.0755 22.3639 12.6562 20.6191 12.6562C18.8744 12.6562 17.4551 14.0755 17.4551 15.8203ZM19.0371 28.582H22.2012V31.7461H19.0371V28.582Z" fill="url(#paint1_linear)"/>
<defs>
<linearGradient id="paint0_linear" x1="20.9531" y1="20.9531" x2="41.2975" y2="55.8711" gradientUnits="userSpaceOnUse">
<stop stop-color="#ECDD00"/>
<stop offset="1" stop-color="#FFB800"/>
</linearGradient>
<linearGradient id="paint1_linear" x1="0" y1="0" x2="25.3882" y2="43.575" gradientUnits="userSpaceOnUse">
<stop stop-color="#ECDD00"/>
<stop offset="1" stop-color="#FFB800"/>
</linearGradient>
</defs>
</svg>
