<svg width="54" height="54" viewBox="0 0 54 54" fill="none" xmlns="http://www.w3.org/2000/svg">
<g clip-path="url(#clip0)">
<path d="M27.5625 4.5H25.0875C24.345 1.9125 21.96 0 19.125 0C16.29 0 13.905 1.9125 13.1625 4.5H10.6875C9.765 4.5 9 5.265 9 6.1875V9.5625C9 11.7225 10.7775 13.5 12.9375 13.5H25.3125C27.4725 13.5 29.25 11.7225 29.25 9.5625V6.1875C29.25 5.265 28.485 4.5 27.5625 4.5Z" fill="url(#paint0_linear)"/>
<path d="M32.0625 6.75H31.5V9.5625C31.5 12.9825 28.7325 15.75 25.3125 15.75H12.9375C9.5175 15.75 6.75 12.9825 6.75 9.5625V6.75H6.1875C2.7675 6.75 0 9.5175 0 12.9375V41.0625C0 44.4825 2.7675 47.25 6.1875 47.25H21.015C19.89 44.8425 19.215 42.1875 19.1475 39.375H8.4375C7.515 39.375 6.75 38.61 6.75 37.6875C6.75 36.765 7.515 36 8.4375 36H19.3275C19.53 34.6275 19.8675 33.3225 20.3175 32.0625H8.4375C7.515 32.0625 6.75 31.2975 6.75 30.375C6.75 29.4525 7.515 28.6875 8.4375 28.6875H21.9375C22.815 27.2475 23.85 25.92 25.065 24.75H8.4375C7.515 24.75 6.75 23.985 6.75 23.0625C6.75 22.14 7.515 21.375 8.4375 21.375H29.6775C32.265 20.025 35.1675 19.215 38.25 19.1475V12.9375C38.25 9.5175 35.4825 6.75 32.0625 6.75Z" fill="url(#paint1_linear)"/>
<path d="M38.8125 23.625C30.438 23.625 23.625 30.438 23.625 38.8125C23.625 47.187 30.438 54 38.8125 54C47.187 54 54 47.187 54 38.8125C54 30.438 47.187 23.625 38.8125 23.625ZM46.1295 35.7953L38.2545 44.7952C37.845 45.2633 37.26 45.5422 36.6368 45.5625C36.612 45.5625 36.5872 45.5625 36.5625 45.5625C35.9663 45.5625 35.3948 45.3263 34.9718 44.9033L30.4718 40.4033C29.592 39.5235 29.592 38.1015 30.4718 37.2217C31.3515 36.342 32.7735 36.342 33.6532 37.2217L36.4523 40.0208L42.7432 32.8297C43.5623 31.8982 44.982 31.7992 45.918 32.6182C46.854 33.4372 46.9485 34.8593 46.1295 35.7953Z" fill="url(#paint2_linear)"/>
</g>
<defs>
<linearGradient id="paint0_linear" x1="9" y1="0" x2="15.4488" y2="16.6025" gradientUnits="userSpaceOnUse">
<stop stop-color="#ECDD00"/>
<stop offset="1" stop-color="#FFB800"/>
</linearGradient>
<linearGradient id="paint1_linear" x1="0" y1="6.75" x2="25.6142" y2="48.2705" gradientUnits="userSpaceOnUse">
<stop stop-color="#ECDD00"/>
<stop offset="1" stop-color="#FFB800"/>
</linearGradient>
<linearGradient id="paint2_linear" x1="23.625" y1="23.625" x2="42.3253" y2="55.7212" gradientUnits="userSpaceOnUse">
<stop stop-color="#ECDD00"/>
<stop offset="1" stop-color="#FFB800"/>
</linearGradient>
<clipPath id="clip0">
<rect width="54" height="54" fill="white"/>
</clipPath>
</defs>
</svg>
