<svg width="14" height="13" viewBox="0 0 14 13" fill="none" xmlns="http://www.w3.org/2000/svg">
<path d="M14 12C14 12.55 13.58 13 13.0667 13H0.933333C0.42 13 0 12.55 0 12C0 11.45 0.42 11 0.933333 11H13.0667C13.58 11 14 11.45 14 12ZM13.6733 2.55C13.4867 2.5 13.2533 2.55 13.16 2.75L10.8267 6.35C10.7333 6.45 10.5467 6.5 10.4067 6.5C10.22 6.5 10.08 6.4 10.0333 6.2L7.42 0.3C7.32667 0.0999999 7.18667 0 7 0C6.81333 0 6.62667 0.15 6.58 0.3L4.34 6.2C4.29333 6.35 4.15333 6.5 3.96667 6.5C3.82667 6.55 3.64 6.45 3.54667 6.3L0.84 2.7C0.7 2.5 0.513333 2.45 0.326667 2.55C0.14 2.6 0 2.8 0 3V7.5C0 8.9 1.02667 10 2.33333 10H11.6667C12.9733 10 14 8.9 14 7.5V3C14 2.8 13.86 2.6 13.6733 2.55Z" fill="#2494F0"/>
</svg>
