<svg width="31" height="31" viewBox="0 0 31 31" fill="none" xmlns="http://www.w3.org/2000/svg">
<path d="M26.8525 0H3.83607C1.71746 0 0 1.71746 0 3.83607V26.8525C0 28.9711 1.71746 30.6885 3.83607 30.6885H26.8525C28.9711 30.6885 30.6885 28.9711 30.6885 26.8525V3.83607C30.6885 1.71746 28.9711 0 26.8525 0Z" fill="#3B5998"/>
<path d="M17.2005 27.3319V16.3954H20.8714L21.421 12.1336H17.2006V9.41274C17.2006 8.17871 17.5435 7.3377 19.3125 7.3377L21.5695 7.33703V3.52486C21.1793 3.47248 19.8399 3.35655 18.2809 3.35655C15.0269 3.35655 12.7995 5.34327 12.7995 8.99066V12.1337H9.11914V16.3955H12.7994V27.332H17.2005V27.3319Z" fill="white"/>
</svg>
