<svg width="31" height="31" viewBox="0 0 31 31" fill="none" xmlns="http://www.w3.org/2000/svg">
<path d="M27.164 0H4.14759C2.02899 0 0.311523 1.71746 0.311523 3.83607V26.8525C0.311523 28.9711 2.02899 30.6885 4.14759 30.6885H27.164C29.2826 30.6885 31 28.9711 31 26.8525V3.83607C31 1.71746 29.2826 0 27.164 0Z" fill="#00ABF1"/>
<path d="M27.6434 7.90846C26.7613 8.2999 25.8136 8.56406 24.8186 8.68309C25.8337 8.07434 26.6138 7.1101 26.9812 5.96205C26.0309 6.52574 24.9779 6.93461 23.8572 7.15533C22.9605 6.19917 21.6816 5.60207 20.2673 5.60207C17.5506 5.60207 15.348 7.80465 15.348 10.521C15.348 10.9064 15.3916 11.2816 15.4756 11.6421C11.3874 11.4364 7.7633 9.47864 5.3372 6.5022C4.91371 7.22871 4.67123 8.0734 4.67123 8.9754C4.67123 10.682 5.5393 12.1873 6.85927 13.0694C6.05334 13.0437 5.29503 12.8226 4.63135 12.4543C4.6311 12.4746 4.6311 12.4953 4.6311 12.516C4.6311 14.8991 6.32677 16.887 8.57671 17.3397C8.16393 17.4515 7.72921 17.512 7.28114 17.512C6.96376 17.512 6.65589 17.4803 6.35585 17.4235C6.98161 19.3773 8.79836 20.7996 10.9503 20.8393C9.26734 22.1589 7.1463 22.9453 4.84118 22.9453C4.44456 22.9453 4.05303 22.922 3.66797 22.876C5.84529 24.2722 8.43072 25.0866 11.2084 25.0866C20.2557 25.0866 25.2035 17.5914 25.2035 11.0915C25.2035 10.8778 25.1986 10.6658 25.1895 10.4547C26.1498 9.761 26.9843 8.89505 27.6434 7.90846Z" fill="white"/>
</svg>
