<svg width="32" height="31" viewBox="0 0 32 31" fill="none" xmlns="http://www.w3.org/2000/svg">
<path d="M24.3809 0H7.26508C3.51349 0 0.475586 3.0379 0.475586 6.78949V23.899C0.475586 27.6569 3.51349 30.6948 7.26508 30.6948H24.3746C28.1262 30.6948 31.1641 27.6569 31.1641 23.9053V6.78949C31.1704 3.0379 28.1325 0 24.3809 0Z" fill="url(#paint0_linear)"/>
<path d="M21.9112 10.6232C22.6507 10.6232 23.2502 10.0237 23.2502 9.28423C23.2502 8.54475 22.6507 7.94528 21.9112 7.94528C21.1717 7.94528 20.5723 8.54475 20.5723 9.28423C20.5723 10.0237 21.1717 10.6232 21.9112 10.6232Z" fill="white"/>
<path d="M20.7372 3.97905H10.9098C7.34772 3.97905 4.45508 6.87169 4.45508 10.4338V20.2612C4.45508 23.8233 7.34772 26.716 10.9098 26.716H20.7372C24.2993 26.716 27.192 23.817 27.192 20.2612V10.4338C27.192 6.87169 24.2993 3.97905 20.7372 3.97905ZM25.1394 20.2612C25.1394 22.6865 23.1625 24.6633 20.7372 24.6633H10.9098C8.48456 24.6633 6.50772 22.6865 6.50772 20.2612V10.4338C6.50772 8.00854 8.48456 6.03169 10.9098 6.03169H20.7372C23.1625 6.03169 25.1394 8.00854 25.1394 10.4338V20.2612Z" fill="white"/>
<path d="M15.8232 9.4296C12.5579 9.4296 9.90527 12.0822 9.90527 15.3475C9.90527 18.6128 12.5579 21.2654 15.8232 21.2654C19.0885 21.2654 21.7412 18.6128 21.7412 15.3475C21.7412 12.0822 19.0885 9.4296 15.8232 9.4296ZM15.8232 19.2128C13.6948 19.2128 11.9579 17.4759 11.9579 15.3475C11.9579 13.2191 13.6948 11.4822 15.8232 11.4822C17.9517 11.4822 19.6886 13.2191 19.6886 15.3475C19.6886 17.4759 17.9517 19.2128 15.8232 19.2128Z" fill="white"/>
<defs>
<linearGradient id="paint0_linear" x1="25.3682" y1="-0.53853" x2="6.27776" y2="31.2334" gradientUnits="userSpaceOnUse">
<stop stop-color="#4845A2"/>
<stop offset="0.0453646" stop-color="#5945A2"/>
<stop offset="0.1713" stop-color="#8444A1"/>
<stop offset="0.2698" stop-color="#9E44A1"/>
<stop offset="0.3282" stop-color="#A844A1"/>
<stop offset="0.3905" stop-color="#AB429A"/>
<stop offset="0.4788" stop-color="#B43C88"/>
<stop offset="0.4896" stop-color="#B53B85"/>
<stop offset="0.5577" stop-color="#BE3572"/>
<stop offset="0.6762" stop-color="#D22749"/>
<stop offset="0.7388" stop-color="#DF4F3E"/>
<stop offset="0.8559" stop-color="#F9A326"/>
<stop offset="1" stop-color="#F9DD26"/>
</linearGradient>
</defs>
</svg>
