<svg width="14" height="23" viewBox="0 0 14 23" fill="none" xmlns="http://www.w3.org/2000/svg">
<path d="M11.6683 0H1.63975C0.736698 0 0 0.736698 0 1.63975V20.9603C0 21.8633 0.736698 22.6 1.63975 22.6H11.6683C12.5714 22.6 13.3081 21.8633 13.3081 20.9603V1.63975C13.3081 0.736698 12.5714 0 11.6683 0ZM5.27571 1.18822H7.98486C8.19874 1.18822 8.36509 1.35457 8.36509 1.56845C8.36509 1.78233 8.19874 1.94869 7.98486 1.94869H5.27571C5.06183 1.94869 4.89548 1.78233 4.89548 1.56845C4.89548 1.37834 5.06183 1.18822 5.27571 1.18822ZM6.63028 21.388C6.03617 21.388 5.56088 20.9127 5.56088 20.3186C5.56088 19.7245 6.03617 19.2492 6.63028 19.2492C7.2244 19.2492 7.69968 19.7245 7.69968 20.3186C7.69968 20.9127 7.2244 21.388 6.63028 21.388ZM11.7396 18.0372H1.54469V3.16067H11.7396V18.0372Z" fill="#2494F0"/>
<path d="M9.52921 6.58266C9.64804 6.70148 9.81439 6.77277 9.98074 6.77277C10.1471 6.77277 10.2897 6.70148 10.4323 6.58266C10.6699 6.34501 10.6699 5.94102 10.4323 5.70337L9.24404 4.51515C9.0064 4.2775 8.6024 4.2775 8.36476 4.51515C8.12711 4.75279 8.12711 5.15679 8.36476 5.39443L9.52921 6.58266Z" fill="#2494F0"/>
<path d="M8.93559 9.31594C9.05442 9.43476 9.22077 9.50605 9.38712 9.50605C9.55347 9.50605 9.69606 9.43476 9.83864 9.31594C10.0763 9.07829 10.0763 8.6743 9.83864 8.43665L6.51162 5.10963C6.27398 4.87199 5.86998 4.87199 5.63234 5.10963C5.39469 5.34727 5.39469 5.75127 5.63234 5.98891L8.93559 9.31594Z" fill="#2494F0"/>
</svg>
