<svg width="18" height="18" viewBox="0 0 18 18" fill="none" xmlns="http://www.w3.org/2000/svg">
<path d="M9.00001 0C4.06018 0 0.040318 4.01986 0.000319331 8.93969C-0.01968 11.3396 0.900289 13.6195 2.60023 15.3195C4.28017 17.0394 6.5401 17.9794 8.94001 17.9994H9.00001C13.9398 17.9994 17.9597 13.9795 17.9997 9.05969C18.0397 4.09986 14.0198 0.0399986 9.00001 0ZM13.2399 9.91966H8.92001C8.60003 9.91966 8.34003 9.65967 8.34003 9.33968V3.57988C8.34003 3.25989 8.60003 2.9999 8.92001 2.9999C9.24 2.9999 9.5 3.25989 9.5 3.57988V8.7597H13.2399C13.5599 8.7597 13.8198 9.01969 13.8198 9.33968C13.8198 9.65967 13.5599 9.91966 13.2399 9.91966Z" fill="#2494F0"/>
</svg>
