<svg xmlns="http://www.w3.org/2000/svg" xmlns:xlink="http://www.w3.org/1999/xlink" viewBox="0 0 487.95 80.96"><defs><style>.cls-1{fill:#1a252f;}.cls-2{fill:url(#linear-gradient);}.cls-3{fill:url(#linear-gradient-2);}</style><linearGradient id="linear-gradient" x1="59.6" y1="51.01" x2="228.12" y2="-46.28" gradientUnits="userSpaceOnUse"><stop offset="0.25" stop-color="#ea546d"/><stop offset="0.35" stop-color="#f07c7b"/><stop offset="0.51" stop-color="#f9bb91"/><stop offset="0.58" stop-color="#fdd399"/></linearGradient><linearGradient id="linear-gradient-2" x1="44.1" y1="149.4" x2="295.32" y2="4.36" gradientUnits="userSpaceOnUse"><stop offset="0" stop-color="#833d90"/><stop offset="0.04" stop-color="#784294"/><stop offset="0.2" stop-color="#5155a1"/><stop offset="0.5" stop-color="#4eb1e5"/><stop offset="0.9" stop-color="#5f9fd7"/><stop offset="1" stop-color="#649ad2"/></linearGradient></defs><g id="Layer_2" data-name="Layer 2"><g id="Layer_1-2" data-name="Layer 1"><path class="cls-1" d="M81.82,65.23,76.76,16H94.39l2.09,30.7L117,22.15h13.07L133.88,46,157,16h17.63L135.45,65.23H119.59L117.1,40.82,97.67,65.23Z"/><path class="cls-1" d="M365.66,19.28Q362.79,16,357,16H314.81l-17,49.23H314.3l5.56-16.14h8L347,80.94h19.47L345.24,49.09h.34q7.17,0,11.6-3.31a16.89,16.89,0,0,0,6.05-7.9l3.67-10.67Q368.52,22.56,365.66,19.28Zm-15.85,9.5L347,36.85a1.24,1.24,0,0,1-1.36.89H323.83l1.67-4.84-5.51-5h29.07C349.79,27.9,350,28.19,349.81,28.78Z"/><polygon class="cls-1" points="253.08 16 248.96 27.9 269.36 27.9 256.45 65.23 272.98 65.23 284.06 33.2 278.22 27.91 285.89 27.91 285.89 27.9 306.3 27.9 310.42 16 253.08 16"/><path class="cls-1" d="M71,19.25Q68.17,16,62.35,16H32.92a16.37,16.37,0,0,0-10.13,3.25,16.6,16.6,0,0,0-5.92,8l-2.6,7.66q-1.68,4.73,1.21,8t8.72,3.24h24c.73,0,1,.3.74.89L47,52.44a1.24,1.24,0,0,1-1.36.89H25.49c-.73,0-1-.29-.83-.89l1-2.8H9.15L7.65,54Q6,58.73,8.86,62t8.71,3.25H47.42A15.3,15.3,0,0,0,57.3,62a17.68,17.68,0,0,0,5.75-8l2.6-7.66q1.69-4.72-1.21-8c-1.93-2.16-4.83-3.25-8.71-3.25H31.78c-.73,0-1-.29-.83-.88l.59-1.72-5.11-4.63h28c.73,0,1,.29.75.88l-.94,2.81H70.78l1.5-4.38Q73.88,22.5,71,19.25Z"/><path class="cls-1" d="M178.92,16h16.53l-17,49.23H161.88Z"/><path class="cls-1" d="M488,16H443.54a16.93,16.93,0,0,0-9.87,3.11,16.06,16.06,0,0,0-6.18,8.1L416.64,58.67a4.41,4.41,0,0,0,.74,4.65,6.44,6.44,0,0,0,5.07,1.91H461q10.45,0,14.37-11.21L482,34.8H450.85l-1.44,4.11c-1,2.88,1.37,5.81,4.7,5.81h8l-2.67,7.72c-.18.6-.69.89-1.53.89H435.68c-.45,0-.63-.18-.52-.54l6.91-20-5.37-4.87h47.12Z"/><path class="cls-1" d="M426.2,16H381.3a7.7,7.7,0,0,0-7.4,4.92L361.72,56.11c-1.57,4.52,2.16,9.12,7.4,9.12h40l4.12-11.9H379.21l1.39-4-4.1-3.72h35.66l3.45-10H385.34l1-2.91-5.3-4.8h41Z"/><path class="cls-1" d="M249,16H206.08a7.71,7.71,0,0,0-7.4,4.92L183.35,65.23h16.52l5.38-15.52-4.54-4.11h33.95l3.46-10h-28l1.08-3.13-5-4.58h38.69Z"/><path class="cls-2" d="M252.92,5.56H57.67V0H254.84ZM51.59,0H45.51V5.57h6.08ZM39.44,0H33.36V5.57h6.08Z"/><path class="cls-3" d="M12.15,81h6.08V75.4H12.15ZM0,81H6.08V75.4H0ZM331.37,75.4H24.3V81l310.64,0Z"/></g></g></svg>